<svg width="20" height="20" viewBox="0 0 20 20" fill="none" xmlns="http://www.w3.org/2000/svg">
<g clip-path="url(#clip0_89_75)">
<path d="M1.22635 10.818C0.85676 10.4492 0.653023 9.95853 0.652782 9.43639C0.652502 8.91424 0.855679 8.42338 1.22486 8.05416C1.41292 7.8661 1.63046 7.72466 1.86288 7.6296L1.06086 6.83061C0.690434 6.46195 0.486095 5.97113 0.485495 5.4485C0.484894 4.92587 0.688032 4.43454 1.05758 4.06499L1.07834 4.04423C1.3635 3.75907 1.716 3.58074 2.08539 3.50928C2.06298 3.39052 2.0511 3.26893 2.05098 3.14541C2.05038 2.62287 2.25355 2.13157 2.62306 1.7621L2.64854 1.73662C3.01749 1.36767 3.50799 1.16449 4.02974 1.16449C4.382 1.16449 4.71985 1.25744 5.01581 1.43117C5.1122 1.17022 5.26432 0.930908 5.46666 0.728611L5.48346 0.711726C6.245 -0.0496887 7.48419 -0.0498087 8.2458 0.711766L13.4655 5.93152L12.8171 3.25408C12.561 2.19618 13.139 1.11744 14.1617 0.744775C14.7372 0.535036 15.3759 0.58281 15.9139 0.875652C16.4519 1.16849 16.8386 1.67896 16.975 2.27617L17.0639 2.66572C17.4891 4.52844 18.192 6.40029 19.1531 8.22913C19.8733 9.59951 20.1476 11.2022 19.9254 12.7419C19.6956 14.335 18.9709 15.7803 17.8298 16.9214C16.429 18.3222 14.5672 19.0934 12.5863 19.0933H12.5813C10.5987 19.0921 8.7357 18.3182 7.33563 16.9144L5.84125 15.4161L1.22635 10.818ZM8.18551 16.0667C9.35896 17.2433 10.9204 17.8919 12.5821 17.893H12.5863C14.2464 17.893 15.807 17.2466 16.981 16.0726C17.9375 15.1161 18.5449 13.9051 18.7374 12.5705C18.9237 11.2792 18.694 9.93569 18.0905 8.78748C17.0811 6.8667 16.342 4.89691 15.8936 2.93283L15.8047 2.54332C15.7442 2.27793 15.5791 2.06011 15.34 1.92995C15.1009 1.79979 14.8283 1.77947 14.5726 1.87261C14.1247 2.03582 13.8715 2.50827 13.9837 2.9716L15.1348 7.72506C15.2714 8.21504 14.6401 8.76084 14.1271 8.2907L7.39701 1.56057C7.10344 1.26692 6.62575 1.267 6.33266 1.56001L6.31586 1.57685C6.17366 1.71909 6.09536 1.9081 6.09536 2.10924C6.09536 2.31038 6.1737 2.49943 6.31586 2.64167C7.41133 3.7371 9.3762 5.70197 10.4515 6.77728C10.6859 7.01162 10.6859 7.39165 10.4515 7.62604C10.2171 7.86042 9.83709 7.86042 9.60275 7.62604C8.93836 6.96165 5.12136 3.14469 4.56205 2.58541C4.41984 2.44317 4.23079 2.36487 4.02965 2.36487C3.82852 2.36487 3.63947 2.44317 3.49722 2.58541L3.47174 2.6109C3.3293 2.75334 3.251 2.94272 3.2512 3.14413C3.25144 3.34555 3.33018 3.53476 3.47302 3.67696C4.97788 5.17583 7.03598 7.22504 8.52568 8.7097C8.76055 8.94365 8.76127 9.32364 8.52736 9.5585C8.41009 9.67621 8.25617 9.73511 8.10216 9.73511C7.94896 9.73511 7.79572 9.67681 7.67864 9.56018C6.67724 8.56266 3.94887 5.84485 2.9906 4.89175C2.69704 4.59962 2.21994 4.60018 1.92706 4.89299L1.90634 4.91375C1.76386 5.05623 1.68555 5.2456 1.68579 5.44706C1.68604 5.64852 1.76482 5.83773 1.90778 5.98001C3.36751 7.43398 5.67932 9.73639 7.12621 11.1788C7.36103 11.4128 7.36176 11.7928 7.12781 12.0276C7.01054 12.1453 6.85661 12.2042 6.70265 12.2042C6.54945 12.2042 6.39616 12.1459 6.27909 12.0292L3.52699 9.2875L3.13568 8.9002C2.84212 8.60963 2.36567 8.61095 2.07362 8.90292C1.9313 9.04524 1.853 9.23445 1.85312 9.43571C1.8532 9.63696 1.93174 9.82614 2.0739 9.96798L6.68981 14.5671L8.18551 16.0667Z" fill="#38bdf8"/>
<path d="M1.95054 14.984C1.8201 14.6793 1.96138 14.3265 2.26607 14.1961C2.57079 14.0656 2.92357 14.2069 3.05401 14.5116C3.25535 14.9819 3.54271 15.4057 3.90809 15.771C4.3545 16.2174 4.88197 16.5442 5.47589 16.7423C5.79034 16.8471 5.96023 17.187 5.85536 17.5015C5.7715 17.753 5.53735 17.912 5.28608 17.912C5.22314 17.912 5.15912 17.902 5.09611 17.881C4.32389 17.6234 3.63858 17.1991 3.05929 16.6198C2.58536 16.1458 2.21229 15.5954 1.95054 14.984Z" fill="#38bdf8"/>
<path d="M0.364437 15.3153C0.669123 15.1847 1.02194 15.3258 1.15254 15.6304C1.43298 16.2846 1.83285 16.874 2.34103 17.3821C2.93208 17.9732 3.62732 18.4147 4.40738 18.6943C4.71939 18.8062 4.88167 19.1498 4.7698 19.4619C4.68194 19.707 4.45103 19.8596 4.2048 19.8596C4.13758 19.8596 4.0692 19.8483 4.00226 19.8243C3.05408 19.4843 2.2096 18.9482 1.49228 18.2309C0.875622 17.6143 0.390165 16.8985 0.0493088 16.1034C-0.0812879 15.7987 0.0597906 15.4459 0.364437 15.3153Z" fill="#38bdf8"/>
</g>
<defs>
<clipPath id="clip0_89_75">
<rect width="20" height="20" fill="white" transform="matrix(-1 0 0 1 20.0005 0)"/>
</clipPath>
</defs>
</svg>
